<svg width="24" height="24" viewBox="0 0 24 24" fill="none" xmlns="http://www.w3.org/2000/svg">
<path d="M12.7632 11.2836C12.6831 11.1579 12.5799 11.043 12.4535 10.9452C10.3153 9.29083 7.92786 7.98683 5.38033 7.08204L4.91428 6.91652C4.04464 6.60765 3.12535 7.19604 3.00752 8.09448C2.67067 10.663 2.67067 13.337 3.00752 15.9055C3.12535 16.8039 4.04464 17.3923 4.91428 17.0835L5.38033 16.9179C7.92786 16.0131 10.3153 14.7091 12.4535 13.0547C12.5799 12.9569 12.6831 12.8421 12.7632 12.7164C12.7883 13.7874 12.8698 14.8553 13.0075 15.9055C13.1253 16.8039 14.0446 17.3923 14.9142 17.0835L15.3803 16.9179C17.9278 16.0131 20.3153 14.7091 22.4535 13.0547C23.1435 12.5208 23.1435 11.4791 22.4535 10.9452C20.3153 9.29083 17.9278 7.98683 15.3803 7.08204L14.9142 6.91652C14.0446 6.60765 13.1253 7.19604 13.0075 8.09448C12.8698 9.14469 12.7883 10.2125 12.7632 11.2836Z" fill="white"/>
</svg>
