<svg width="48" height="48" viewBox="0 0 48 48" fill="none" xmlns="http://www.w3.org/2000/svg">
<path d="M23.7036 32.3355C23.7036 33.8286 23.1105 35.2605 22.0547 36.3163C20.999 37.372 19.567 37.9651 18.074 37.9651C16.5809 37.9651 15.149 37.372 14.0932 36.3163C13.0375 35.2605 12.4443 33.8286 12.4443 32.3355C12.4443 30.8424 13.0375 29.4105 14.0932 28.3548C15.149 27.299 16.5809 26.7059 18.074 26.7059C19.567 26.7059 20.999 27.299 22.0547 28.3548C23.1105 29.4105 23.7036 30.8424 23.7036 32.3355ZM23.7036 32.3355V12.6318M27.4191 9.97181L33.6399 12.0407C35.1458 12.5474 36.3843 14.2503 36.3843 15.8407V17.4874C36.3843 19.6407 34.7236 20.837 32.6829 20.1614L26.4621 18.0926C24.9562 17.5859 23.7177 15.8829 23.7177 14.2926V12.6318C23.7036 10.4926 25.3784 9.28219 27.4191 9.97181Z" stroke="white" stroke-width="2.5" stroke-linecap="round" stroke-linejoin="round"/>
<path d="M48 24C48 37.2548 37.2548 48 24 48C10.7452 48 0 37.2548 0 24C0 10.7452 10.7452 0 24 0C37.2548 0 48 10.7452 48 24ZM2.41586 24C2.41586 35.9206 12.0794 45.5841 24 45.5841C35.9206 45.5841 45.5841 35.9206 45.5841 24C45.5841 12.0794 35.9206 2.41586 24 2.41586C12.0794 2.41586 2.41586 12.0794 2.41586 24Z" fill="white"/>
</svg>
