<svg width="32" height="32" viewBox="0 0 32 32" fill="none" xmlns="http://www.w3.org/2000/svg">
<path d="M25.2963 4.40403C26.0796 4.68876 26.6 5.42506 26.6 6.24867V25.7512C26.6 26.5748 26.0796 27.3113 25.2963 27.5959C23.8141 28.1347 22.1859 28.1347 20.7037 27.5959C19.9204 27.3113 19.4 26.5748 19.4 25.7512V6.24867C19.4 5.42506 19.9204 4.68876 20.7037 4.40403C22.1859 3.86532 23.8141 3.86532 25.2963 4.40403Z" fill="white"/>
<path d="M10.8962 4.40403C11.6796 4.68876 12.2 5.42506 12.2 6.24867V25.7512C12.2 26.5748 11.6796 27.3113 10.8962 27.5959C9.4141 28.1347 7.7859 28.1347 6.30378 27.5959C5.52042 27.3113 5 26.5748 5 25.7512V6.24867C5 5.42506 5.52042 4.68876 6.30378 4.40403C7.7859 3.86532 9.4141 3.86532 10.8962 4.40403Z" fill="white"/>
</svg>
