<svg width="24" height="24" viewBox="0 0 24 24" fill="none" xmlns="http://www.w3.org/2000/svg">
<path d="M1.54583 13.0547C0.855819 12.5208 0.855818 11.4791 1.54583 10.9452C3.68395 9.29083 6.07146 7.98683 8.61899 7.08204L9.08504 6.91652C9.95468 6.60765 10.874 7.19604 10.9918 8.09448C11.1296 9.14469 11.211 10.2125 11.2361 11.2836C11.3162 11.1579 11.4194 11.043 11.5459 10.9452C13.684 9.29083 16.0715 7.98683 18.619 7.08204L19.0851 6.91652C19.9547 6.60765 20.874 7.19604 20.9918 8.09448C21.3287 10.663 21.3287 13.337 20.9918 15.9055C20.874 16.8039 19.9547 17.3923 19.0851 17.0835L18.619 16.9179C16.0715 16.0131 13.684 14.7091 11.5459 13.0547C11.4194 12.9569 11.3162 12.8421 11.2361 12.7164C11.211 13.7874 11.1296 14.8553 10.9918 15.9055C10.874 16.8039 9.95468 17.3923 9.08504 17.0835L8.61899 16.9179C6.07146 16.0131 3.68395 14.7091 1.54583 13.0547Z" fill="white"/>
</svg>
